<svg viewBox="0 0 139.51 81.53" xmlns="http://www.w3.org/2000/svg" data-name="katman 1" id="katman_1">
  <defs>
    <style>
      .cls-1 {
        fill: #3db54a;
      }

      .cls-2 {
        fill: #fff;
      }

      .cls-3 {
        fill: #dcdce6;
      }
    </style>
  </defs>
  <g>
    <path d="M4.09,76.85v-6.13h.98v2.41h1.93v-2.41h.98v6.13h-.98v-2.68h-1.93v2.68h-.98Z" class="cls-2"></path>
    <path d="M11.01,75.44l.93.2c-.12.44-.32.78-.58.99-.26.22-.58.32-.96.32-.52,0-.93-.18-1.21-.54-.34-.42-.5-1.01-.5-1.76s.17-1.34.51-1.79c.29-.38.66-.57,1.11-.57.51,0,.9.19,1.19.58.33.44.5,1.09.5,1.95v.13h-2.35c0,.35.08.63.23.82.15.19.33.29.54.29.3,0,.5-.21.6-.64ZM11.06,74.25c0-.35-.08-.61-.21-.78s-.3-.26-.48-.26c-.2,0-.36.09-.5.27-.14.19-.21.44-.2.77h1.4Z" class="cls-2"></path>
    <path d="M13.6,76.85h-.94v-4.44h.87v.63c.15-.3.28-.49.4-.59.12-.1.25-.15.41-.15.21,0,.42.08.61.22l-.29,1.03c-.15-.13-.3-.19-.44-.19-.13,0-.24.05-.34.15-.1.1-.17.28-.21.54-.04.26-.07.74-.07,1.43v1.37Z" class="cls-2"></path>
    <path d="M16.29,76.85l-1.43-4.44h.98l.67,2.27.19.76.2-.76.68-2.27h.96l-1.41,4.44h-.83Z" class="cls-2"></path>
    <path d="M18.84,74.57c0-.43.08-.83.25-1.19.17-.36.39-.63.66-.8.27-.18.57-.27.91-.27.57,0,1.01.23,1.34.69s.49,1,.49,1.61c0,.46-.08.87-.25,1.24s-.39.65-.67.83c-.27.19-.57.28-.9.28-.53,0-.96-.2-1.31-.62s-.52-1-.52-1.77ZM19.79,74.63c0,.45.09.79.26,1.02.17.23.38.35.62.35s.44-.12.61-.35c.17-.23.25-.57.25-1.03s-.09-.78-.26-1.01-.38-.35-.61-.35-.44.11-.61.35c-.17.23-.25.57-.25,1.02Z" class="cls-2"></path>
    <path d="M24.07,76.85h-.94v-4.44h.87v.63c.15-.3.28-.49.4-.59.12-.1.25-.15.41-.15.21,0,.42.08.61.22l-.29,1.03c-.15-.13-.3-.19-.44-.19-.13,0-.24.05-.34.15-.1.1-.17.28-.21.54-.04.26-.07.74-.07,1.43v1.37Z" class="cls-2"></path>
    <path d="M26.68,76.85h-.94v-4.44h.87v.63c.15-.3.28-.49.4-.59.12-.1.25-.15.41-.15.21,0,.42.08.61.22l-.29,1.03c-.15-.13-.3-.19-.44-.19-.13,0-.24.05-.34.15-.1.1-.17.28-.21.54-.04.26-.07.74-.07,1.43v1.37Z" class="cls-2"></path>
    <path d="M29.09,73.76l-.85-.19c.1-.45.27-.77.51-.97.24-.2.58-.3,1.02-.3.39,0,.7.06.9.17.21.12.36.27.45.47.09.2.13.56.13,1.07v1.37c0,.38,0,.67.04.86.03.19.09.39.17.6h-.93l-.12-.48c-.16.19-.33.34-.51.44-.18.1-.38.15-.58.15-.34,0-.63-.12-.84-.36-.22-.24-.33-.56-.33-.95,0-.25.04-.47.13-.66.09-.19.21-.34.38-.45.16-.11.42-.21.78-.3.43-.1.73-.2.9-.29,0-.25-.02-.41-.05-.49-.03-.08-.1-.14-.19-.19-.09-.05-.22-.07-.38-.07s-.3.04-.4.12-.17.22-.23.44ZM30.34,74.72c-.12.05-.3.11-.56.17-.29.08-.48.17-.57.26-.09.1-.13.22-.13.37,0,.17.05.32.15.43s.22.17.37.17c.13,0,.26-.05.39-.14.13-.09.22-.2.27-.33.05-.13.07-.36.07-.7v-.23Z" class="cls-2"></path>
    <path d="M32.05,77.14l1.07.16c.02.16.07.28.15.35s.21.1.39.1c.21,0,.37-.04.5-.11.09-.05.16-.13.21-.25.05-.12.07-.32.07-.62v-.65c-.14.24-.3.42-.47.54-.18.12-.37.18-.58.18-.39,0-.72-.18-.99-.55-.31-.42-.46-.99-.46-1.7,0-.76.15-1.33.44-1.72s.64-.58,1.06-.58c.22,0,.42.06.6.18.18.12.34.3.48.55v-.62h.88v3.99c0,.64-.06,1.1-.17,1.39-.11.29-.29.51-.53.65-.24.15-.56.22-.98.22-.39,0-.7-.05-.93-.16-.23-.11-.41-.27-.53-.47-.12-.21-.18-.45-.18-.73v-.15ZM32.88,74.54c0,.47.07.82.22,1.04.15.22.32.33.53.33.22,0,.42-.11.58-.33.16-.22.24-.56.24-1.01s-.08-.81-.23-1.03-.34-.33-.57-.33-.41.11-.55.33c-.15.22-.22.55-.22,1.01Z" class="cls-2"></path>
    <path d="M38.31,75.44l.93.2c-.12.44-.32.78-.58.99-.26.22-.58.32-.96.32-.52,0-.93-.18-1.21-.54-.34-.42-.5-1.01-.5-1.76s.17-1.34.51-1.79c.29-.38.66-.57,1.11-.57.51,0,.9.19,1.19.58.33.44.5,1.09.5,1.95v.13h-2.35c0,.35.08.63.23.82.15.19.33.29.54.29.3,0,.5-.21.6-.64ZM38.36,74.25c0-.35-.08-.61-.21-.78s-.3-.26-.48-.26c-.2,0-.36.09-.5.27-.14.19-.21.44-.2.77h1.4Z" class="cls-2"></path>
    <path d="M43.22,76.85h-.94v-2.27c0-.45-.02-.76-.05-.91s-.1-.27-.2-.35-.2-.12-.33-.12c-.16,0-.3.05-.43.16-.13.11-.22.25-.27.43s-.08.53-.08,1.04v2.01h-.94v-4.44h.87v.65c.15-.25.33-.44.52-.56s.41-.19.64-.19c.27,0,.5.07.69.22s.32.34.39.57c.07.23.11.56.11,1v2.76Z" class="cls-2"></path>
    <path d="M47.36,76.85h-.87v-.65c-.14.25-.31.44-.51.57s-.4.19-.6.19c-.4,0-.74-.2-1.03-.61s-.44-.99-.44-1.74.14-1.33.43-1.72c.29-.39.64-.58,1.06-.58.2,0,.38.05.55.16.17.1.33.26.47.46v-2.2h.94v6.13ZM44.87,74.53c0,.4.03.7.1.9s.16.35.28.44c.12.1.26.15.42.15.2,0,.38-.12.53-.34.15-.23.23-.58.23-1.04,0-.51-.07-.88-.22-1.11-.15-.22-.33-.34-.56-.34s-.4.11-.55.33c-.15.22-.23.55-.23,1Z" class="cls-2"></path>
    <path d="M50.2,78.65v-8.04h.74v8.04h-.74Z" class="cls-2"></path>
    <path d="M53.82,70.72h.98v3.32c0,.52.01.85.04,1.01.04.27.15.48.31.63.16.15.38.22.65.22.23,0,.41-.05.56-.16.14-.1.24-.25.3-.43.05-.18.08-.58.08-1.19v-3.39h.98v3.22c0,.82-.04,1.42-.13,1.78-.08.37-.28.66-.58.89-.3.23-.69.34-1.18.34s-.91-.09-1.19-.28c-.29-.19-.49-.45-.62-.8s-.19-.97-.19-1.89v-3.27ZM54.65,70.07v-1.01h.8v1.01h-.8ZM56.08,70.07v-1.01h.8v1.01h-.8Z" class="cls-2"></path>
    <path d="M58.65,76.85v-6.13h.94v2.2c.14-.2.3-.36.47-.46.17-.1.35-.16.55-.16.42,0,.77.19,1.05.58s.43.96.43,1.72-.15,1.33-.44,1.74-.64.61-1.04.61c-.2,0-.4-.06-.6-.19-.2-.13-.36-.32-.5-.56v.65h-.87ZM59.58,74.53c0,.38.04.67.1.88.07.2.17.35.3.46.13.1.27.16.41.16.21,0,.38-.11.53-.33s.22-.57.22-1.06-.07-.87-.22-1.1c-.15-.22-.33-.34-.56-.34s-.4.11-.55.33-.23.55-.23,1Z" class="cls-2"></path>
    <path d="M64.87,75.44l.93.2c-.12.44-.32.78-.58.99-.26.22-.58.32-.96.32-.52,0-.93-.18-1.21-.54-.34-.42-.5-1.01-.5-1.76s.17-1.34.51-1.79c.29-.38.66-.57,1.11-.57.51,0,.9.19,1.19.58.33.44.5,1.09.5,1.95v.13h-2.35c0,.35.08.63.23.82.15.19.33.29.54.29.3,0,.5-.21.6-.64ZM64.92,74.25c0-.35-.08-.61-.21-.78s-.3-.26-.48-.26c-.2,0-.36.09-.5.27-.14.19-.21.44-.2.77h1.4Z" class="cls-2"></path>
    <path d="M67.46,76.85h-.94v-4.44h.87v.63c.15-.3.28-.49.4-.59.12-.1.25-.15.41-.15.21,0,.42.08.61.22l-.29,1.03c-.15-.13-.3-.19-.44-.19-.13,0-.24.05-.34.15-.1.1-.17.28-.21.54-.04.26-.07.74-.07,1.43v1.37Z" class="cls-2"></path>
    <path d="M71.62,73.54c-.23-.12-.4-.29-.52-.5-.11-.21-.17-.46-.17-.76,0-.48.13-.86.4-1.15s.62-.43,1.07-.43c.48,0,.84.15,1.09.46.25.3.37.67.37,1.11,0,.3-.06.56-.18.77-.12.22-.28.38-.49.5.28.14.49.33.62.59.14.25.21.56.21.93s-.07.71-.2,1c-.14.29-.33.51-.57.66-.24.15-.51.23-.81.23-.47,0-.86-.17-1.17-.5s-.46-.79-.46-1.36c0-.37.07-.68.21-.95.14-.26.34-.46.6-.6ZM71.73,74.98c0,.33.07.58.2.76.14.18.3.27.49.27s.35-.08.48-.26c.13-.17.19-.42.19-.76,0-.29-.07-.52-.2-.69-.13-.17-.29-.26-.49-.26s-.35.09-.48.26c-.13.17-.2.4-.2.68ZM71.82,72.36c0,.24.06.42.16.55.11.13.25.19.42.19s.31-.06.42-.19c.11-.13.17-.31.17-.55s-.05-.41-.16-.54c-.11-.13-.25-.19-.41-.19s-.31.06-.43.19-.17.31-.17.54Z" class="cls-2"></path>
    <path d="M74.58,75.27l.93-.13c.02.27.1.48.24.63s.28.23.45.23c.19,0,.36-.1.5-.29.14-.2.21-.5.21-.9,0-.38-.07-.67-.2-.85-.14-.18-.31-.28-.52-.28-.27,0-.51.15-.72.45l-.76-.14.48-3.19h2.47v1.1h-1.76l-.15,1.04c.21-.13.43-.2.64-.2.38,0,.71.16.98.47.34.4.51.92.51,1.58,0,.54-.14,1.03-.43,1.49s-.7.68-1.24.68c-.43,0-.79-.14-1.08-.44-.29-.29-.47-.7-.53-1.24Z" class="cls-2"></path>
    <path d="M78.52,76.85v-1.17h.93v1.17h-.93Z" class="cls-2"></path>
    <path d="M81.75,70.7c.47,0,.85.23,1.15.69.29.46.44,1.28.44,2.43s-.15,1.97-.44,2.43c-.29.46-.67.69-1.14.69s-.86-.23-1.15-.69-.44-1.28-.44-2.45.15-1.96.44-2.42.67-.69,1.14-.69ZM81.75,71.67c-.18,0-.33.13-.44.38s-.17.84-.17,1.78.06,1.53.17,1.78c.11.25.26.37.44.37s.34-.13.44-.38c.11-.25.16-.84.16-1.78s-.05-1.53-.16-1.78c-.11-.25-.26-.38-.44-.38Z" class="cls-2"></path>
    <path d="M85.5,70.7c.47,0,.85.23,1.15.69.29.46.44,1.28.44,2.43s-.15,1.97-.44,2.43c-.29.46-.67.69-1.14.69s-.86-.23-1.15-.69-.44-1.28-.44-2.45.15-1.96.44-2.42.67-.69,1.14-.69ZM85.5,71.67c-.18,0-.33.13-.44.38s-.17.84-.17,1.78.06,1.53.17,1.78c.11.25.26.37.44.37s.34-.13.44-.38c.11-.25.16-.84.16-1.78s-.05-1.53-.16-1.78c-.11-.25-.26-.38-.44-.38Z" class="cls-2"></path>
    <path d="M89.24,70.7c.47,0,.85.23,1.15.69.29.46.44,1.28.44,2.43s-.15,1.97-.44,2.43c-.29.46-.67.69-1.14.69s-.86-.23-1.15-.69-.44-1.28-.44-2.45.15-1.96.44-2.42.67-.69,1.14-.69ZM89.24,71.67c-.18,0-.33.13-.44.38s-.17.84-.17,1.78.06,1.53.17,1.78c.11.25.26.37.44.37s.34-.13.44-.38c.11-.25.16-.84.16-1.78s-.05-1.53-.16-1.78c-.11-.25-.26-.38-.44-.38Z" class="cls-2"></path>
    <path d="M93.47,70.72h1.95c.53,0,.91.05,1.13.15.22.1.4.28.55.53.15.25.22.54.22.86,0,.3-.06.56-.19.8-.13.24-.29.41-.5.53.29.11.52.29.68.55.16.26.25.57.25.93,0,.45-.1.82-.31,1.13s-.45.5-.74.57c-.2.05-.66.08-1.38.08h-1.66v-6.13ZM94.45,71.74v1.42h.65c.39,0,.63,0,.72-.02.17-.03.3-.1.39-.22s.14-.28.14-.48c0-.18-.04-.33-.12-.44s-.17-.18-.28-.21c-.11-.03-.42-.04-.94-.04h-.57ZM94.45,74.18v1.63h.91c.4,0,.66-.02.77-.06.11-.04.21-.13.29-.26.08-.13.12-.29.12-.48s-.04-.36-.12-.49c-.08-.13-.19-.22-.33-.27-.14-.05-.42-.07-.84-.07h-.8Z" class="cls-2"></path>
    <path d="M100.39,75.44l.93.2c-.12.44-.32.78-.58.99-.26.22-.58.32-.96.32-.52,0-.93-.18-1.21-.54-.34-.42-.5-1.01-.5-1.76s.17-1.34.51-1.79c.29-.38.66-.57,1.11-.57.51,0,.9.19,1.19.58.33.44.5,1.09.5,1.95v.13h-2.35c0,.35.08.63.23.82.15.19.33.29.54.29.3,0,.5-.21.6-.64ZM100.44,74.25c0-.35-.08-.61-.21-.78s-.3-.26-.48-.26c-.2,0-.36.09-.5.27-.14.19-.21.44-.2.77h1.4Z" class="cls-2"></path>
    <path d="M102.75,76.85l-1.13-4.44h.91l.66,2.91.61-2.91h.89l.59,2.91.68-2.91h.92l-1.14,4.44h-.89l-.61-2.86-.6,2.86h-.9Z" class="cls-2"></path>
    <path d="M109.4,75.44l.93.2c-.12.44-.32.78-.58.99-.26.22-.58.32-.96.32-.52,0-.93-.18-1.21-.54-.34-.42-.5-1.01-.5-1.76s.17-1.34.51-1.79c.29-.38.66-.57,1.11-.57.51,0,.9.19,1.19.58.33.44.5,1.09.5,1.95v.13h-2.35c0,.35.08.63.23.82.15.19.33.29.54.29.3,0,.5-.21.6-.64ZM109.45,74.25c0-.35-.08-.61-.21-.78s-.3-.26-.48-.26c-.2,0-.36.09-.5.27-.14.19-.21.44-.2.77h1.4Z" class="cls-2"></path>
    <path d="M111.99,76.85h-.94v-4.44h.87v.63c.15-.3.28-.49.4-.59.12-.1.25-.15.41-.15.21,0,.42.08.61.22l-.29,1.03c-.15-.13-.3-.19-.44-.19-.13,0-.24.05-.34.15-.1.1-.17.28-.21.54-.04.26-.07.74-.07,1.43v1.37Z" class="cls-2"></path>
    <path d="M115.31,72.41v.94h-.64v1.79c0,.39,0,.61.03.67.04.11.11.17.23.17.09,0,.21-.04.37-.11l.08.91c-.22.12-.46.17-.73.17-.24,0-.43-.06-.57-.17-.14-.12-.24-.29-.29-.51-.04-.16-.06-.49-.06-.99v-1.94h-.43v-.94h.43v-.88l.94-.68v1.57h.64Z" class="cls-2"></path>
    <path d="M118.24,76.85v-.66c-.13.24-.3.43-.51.57-.21.13-.43.2-.66.2s-.44-.06-.62-.19c-.18-.13-.32-.31-.41-.54-.09-.23-.14-.57-.14-1.01v-2.81h.94v2.04c0,.58.01.95.04,1.11.03.16.09.28.19.37s.21.13.35.13c.16,0,.3-.06.43-.17.13-.11.22-.26.26-.43.04-.18.06-.57.06-1.17v-1.87h.94v4.44h-.87Z" class="cls-2"></path>
    <path d="M123.26,76.85h-.94v-2.27c0-.45-.02-.76-.05-.91s-.1-.27-.2-.35-.2-.12-.33-.12c-.16,0-.3.05-.43.16-.13.11-.22.25-.27.43s-.08.53-.08,1.04v2.01h-.94v-4.44h.87v.65c.15-.25.33-.44.52-.56s.41-.19.64-.19c.27,0,.5.07.69.22s.32.34.39.57c.07.23.11.56.11,1v2.76Z" class="cls-2"></path>
    <path d="M124.08,77.14l1.07.16c.02.16.07.28.15.35s.21.1.39.1c.21,0,.37-.04.5-.11.09-.05.16-.13.21-.25.05-.12.07-.32.07-.62v-.65c-.14.24-.3.42-.47.54-.18.12-.37.18-.58.18-.39,0-.72-.18-.99-.55-.31-.42-.46-.99-.46-1.7,0-.76.15-1.33.44-1.72s.64-.58,1.06-.58c.22,0,.42.06.6.18.18.12.34.3.48.55v-.62h.88v3.99c0,.64-.06,1.1-.17,1.39-.11.29-.29.51-.53.65-.24.15-.56.22-.98.22-.39,0-.7-.05-.93-.16-.23-.11-.41-.27-.53-.47-.12-.21-.18-.45-.18-.73v-.15ZM124.91,74.54c0,.47.07.82.22,1.04.15.22.32.33.53.33.22,0,.42-.11.58-.33.16-.22.24-.56.24-1.01s-.08-.81-.23-1.03-.34-.33-.57-.33-.41.11-.55.33c-.15.22-.22.55-.22,1.01Z" class="cls-2"></path>
    <path d="M130.34,75.44l.93.2c-.12.44-.32.78-.58.99-.26.22-.58.32-.96.32-.52,0-.93-.18-1.21-.54-.34-.42-.5-1.01-.5-1.76s.17-1.34.51-1.79c.29-.38.66-.57,1.11-.57.51,0,.9.19,1.19.58.33.44.5,1.09.5,1.95v.13h-2.35c0,.35.08.63.23.82.15.19.33.29.54.29.3,0,.5-.21.6-.64ZM130.39,74.25c0-.35-.08-.61-.21-.78s-.3-.26-.48-.26c-.2,0-.36.09-.5.27-.14.19-.21.44-.2.77h1.4Z" class="cls-2"></path>
    <path d="M135.24,76.85h-.94v-2.27c0-.45-.02-.76-.05-.91s-.1-.27-.2-.35-.2-.12-.33-.12c-.16,0-.3.05-.43.16-.13.11-.22.25-.27.43s-.08.53-.08,1.04v2.01h-.94v-4.44h.87v.65c.15-.25.33-.44.52-.56s.41-.19.64-.19c.27,0,.5.07.69.22s.32.34.39.57c.07.23.11.56.11,1v2.76Z" class="cls-2"></path>
  </g>
  <polygon points="35.39 14.36 23.33 14.36 19.6 2.88 15.86 14.36 3.8 14.35 13.57 21.45 9.83 32.92 19.6 25.83 29.36 32.92 25.64 21.45 35.39 14.36 35.39 14.36" class="cls-1" id="Path"></polygon>
  <rect height="24.73" width="24.73" y="40.22" x="3.8" class="cls-1" id="Rectangle"></rect>
  <rect height="24.73" width="24.73" y="40.22" x="30.59" class="cls-1" data-name="Rectangle" id="Rectangle-2"></rect>
  <rect height="24.73" width="24.73" y="40.22" x="57.39" class="cls-1" data-name="Rectangle" id="Rectangle-3"></rect>
  <rect height="24.73" width="24.73" y="40.22" x="84.18" class="cls-1" data-name="Rectangle" id="Rectangle-4"></rect>
  <rect height="24.73" width="24.73" y="40.22" x="110.98" class="cls-3" data-name="Rectangle" id="Rectangle-5"></rect>
  <polygon points="110.98 40.22 123.34 40.22 123.3 64.95 110.98 64.95 110.98 40.22" class="cls-1" data-name="Rectangle" id="Rectangle-6"></polygon>
  <polyline points="16.17 56.89 21.5 60.78 19.48 54.5 19.49 54.49 24.82 50.63 18.2 50.63 16.17 44.39 14.13 50.63 7.51 50.63 12.87 54.49 10.83 60.73 16.19 56.86" class="cls-2"></polyline>
  <polyline points="42.96 56.89 48.29 60.78 46.27 54.5 46.28 54.49 51.62 50.63 45 50.63 42.96 44.39 40.93 50.63 34.3 50.63 39.66 54.49 37.63 60.73 42.99 56.86" class="cls-2"></polyline>
  <polyline points="69.76 56.89 75.09 60.78 73.07 54.5 73.08 54.49 78.41 50.63 71.79 50.63 69.76 44.39 67.72 50.63 61.1 50.63 66.46 54.49 64.42 60.73 69.78 56.86" class="cls-2"></polyline>
  <polyline points="96.55 56.89 101.88 60.78 99.86 54.5 99.87 54.49 105.21 50.63 98.58 50.63 96.55 44.39 94.51 50.63 87.89 50.63 93.25 54.49 91.22 60.73 96.57 56.86" class="cls-2"></polyline>
  <polyline points="123.34 56.89 128.68 60.78 126.65 54.5 126.67 54.49 132 50.63 125.38 50.63 123.34 44.39 121.31 50.63 114.69 50.63 120.05 54.49 118.01 60.73 123.37 56.86" class="cls-2"></polyline>
  <g>
    <path d="M40.37,28.27v-11.51h-3.37v-2.34h9.02v2.34h-3.36v11.51h-2.29Z" class="cls-2"></path>
    <path d="M49.58,28.27h-2.18v-10.04h2.02v1.43c.35-.67.66-1.11.93-1.33.27-.22.59-.33.95-.33.5,0,.97.17,1.43.5l-.68,2.31c-.36-.29-.7-.43-1.02-.43-.3,0-.57.11-.8.34s-.4.63-.5,1.21c-.1.59-.15,1.67-.15,3.24v3.1Z" class="cls-2"></path>
    <path d="M59.06,28.27v-1.5c-.3.54-.7.97-1.19,1.28-.49.31-1,.46-1.54.46s-1.03-.14-1.45-.43c-.43-.28-.75-.69-.96-1.21-.21-.52-.32-1.28-.32-2.28v-6.36h2.18v4.61c0,1.32.03,2.15.1,2.51s.21.63.44.83c.23.19.5.29.82.29.36,0,.7-.13,1.01-.38.31-.26.51-.58.61-.98.1-.4.15-1.28.15-2.64v-4.23h2.18v10.04h-2.03Z" class="cls-2"></path>
    <path d="M62.59,25.41l2.18-.41c.19,1.05.77,1.58,1.76,1.58.52,0,.91-.1,1.17-.3.26-.2.39-.46.39-.79,0-.22-.06-.39-.17-.52-.12-.13-.36-.24-.71-.33-1.79-.47-2.92-.93-3.41-1.36-.6-.54-.91-1.27-.91-2.21s.3-1.68.89-2.24,1.45-.84,2.58-.84,1.9.21,2.46.63.95,1.09,1.18,2.03l-2.05.46c-.18-.81-.7-1.21-1.55-1.21-.54,0-.92.08-1.14.23-.23.16-.34.36-.34.6,0,.22.1.4.31.55.21.15.85.38,1.93.69,1.21.34,2.04.76,2.48,1.24.43.49.64,1.13.64,1.94,0,.97-.33,1.77-1,2.4-.66.63-1.58.95-2.75.95-1.06,0-1.93-.26-2.61-.79-.67-.53-1.12-1.29-1.33-2.3Z" class="cls-2"></path>
    <path d="M75.95,18.23v2.12h-1.48v4.05c0,.88.02,1.38.07,1.52.09.25.27.38.54.38.2,0,.49-.09.87-.26l.19,2.06c-.5.26-1.07.4-1.71.4-.55,0-1-.13-1.33-.4-.33-.26-.56-.65-.67-1.14-.09-.36-.13-1.11-.13-2.23v-4.38h-1v-2.12h1v-1.99l2.18-1.55v3.54h1.48Z" class="cls-2"></path>
    <path d="M77.4,18.23h2.02v1.48c.28-.53.64-.95,1.1-1.25s.94-.46,1.47-.46c.94,0,1.75.45,2.43,1.35.68.9,1.02,2.17,1.02,3.81,0,1.73-.34,3.05-1.02,3.97-.68.92-1.49,1.38-2.43,1.38-.44,0-.84-.11-1.21-.32s-.77-.59-1.19-1.15v5.05h-2.18v-13.85ZM79.55,23.08c0,1.14.18,1.98.55,2.51s.81.81,1.33.81.91-.25,1.25-.74c.34-.5.51-1.31.51-2.43s-.18-1.86-.52-2.36c-.35-.51-.77-.76-1.28-.76-.53,0-.97.25-1.32.74-.35.5-.53,1.24-.53,2.24Z" class="cls-2"></path>
    <path d="M87.16,16.87v-2.46h2.18v2.46h-2.18ZM87.16,28.27v-10.04h2.18v10.04h-2.18Z" class="cls-2"></path>
    <path d="M91.57,28.27v-13.85h2.18v13.85h-2.18Z" class="cls-2"></path>
    <path d="M95.48,23.11c0-.99.2-1.88.59-2.69.39-.81.9-1.41,1.53-1.82s1.34-.61,2.13-.61c1.32,0,2.36.52,3.12,1.56.76,1.04,1.13,2.25,1.13,3.64,0,1.04-.2,1.97-.59,2.8-.39.83-.91,1.46-1.55,1.88-.64.42-1.34.63-2.1.63-1.22,0-2.24-.47-3.04-1.4-.81-.93-1.21-2.27-1.21-3.99ZM97.71,23.25c0,1.02.2,1.79.6,2.31.4.52.88.78,1.44.78s1.02-.26,1.41-.79.59-1.3.59-2.32-.2-1.76-.6-2.28c-.4-.53-.87-.79-1.43-.79s-1.02.26-1.42.79c-.4.52-.59,1.29-.59,2.3Z" class="cls-2"></path>
    <path d="M109.44,18.23v2.12h-1.48v4.05c0,.88.02,1.38.07,1.52.09.25.27.38.54.38.2,0,.49-.09.87-.26l.19,2.06c-.5.26-1.07.4-1.71.4-.55,0-1-.13-1.33-.4-.33-.26-.56-.65-.67-1.14-.09-.36-.13-1.11-.13-2.23v-4.38h-1v-2.12h1v-1.99l2.18-1.55v3.54h1.48Z" class="cls-2"></path>
    <path d="M119.17,28.27v-2.79h-4.65v-2.33l4.92-8.79h1.83v8.78h1.41v2.33h-1.41v2.79h-2.11ZM119.17,23.15v-4.73l-2.61,4.73h2.61Z" class="cls-2"></path>
    <path d="M124.14,25.61h2.17v1.9c0,1.08-.13,1.88-.38,2.4-.31.65-.83,1.13-1.55,1.45l-.43-1.1c.43-.18.74-.41.93-.71.19-.3.29-.73.3-1.28h-1.05v-2.65Z" class="cls-2"></path>
    <path d="M128.06,24.6l2.11-.31c.06.65.24,1.15.54,1.5.3.34.66.52,1.07.52.45,0,.83-.2,1.14-.61.31-.41.46-.98.46-1.7,0-.67-.15-1.2-.45-1.59-.3-.38-.66-.58-1.08-.58-.28,0-.61.07-1,.2l.24-2.16c.56.01,1.01-.14,1.34-.45.32-.31.48-.76.48-1.33,0-.48-.12-.85-.35-1.12-.23-.27-.53-.41-.9-.41s-.68.16-.95.47-.43.77-.48,1.38l-2.01-.42c.21-1.27.61-2.19,1.22-2.76.6-.57,1.37-.86,2.29-.86,1.03,0,1.86.37,2.47,1.11.61.74.91,1.55.91,2.44,0,.6-.14,1.15-.41,1.63s-.68.91-1.23,1.27c.64.17,1.15.55,1.55,1.13.4.58.6,1.3.6,2.17,0,1.27-.38,2.31-1.13,3.14-.75.83-1.65,1.24-2.69,1.24s-1.84-.35-2.53-1.05c-.69-.7-1.09-1.65-1.21-2.86Z" class="cls-2"></path>
  </g>
</svg>